<svg width="300" height="320" viewBox="0 0 300 320" xmlns="http://www.w3.org/2000/svg">
  <rect width="300" height="320" fill="white"/>
  <path d="M150,20 L220,48 L220,130 Q220,185 150,210 Q80,185 80,130 L80,48 Z" fill="#BA7517" opacity="0.10"/>
  <path d="M150,28 L212,53 L212,130 Q212,178 150,200 Q88,178 88,130 L88,53 Z" fill="none" stroke="#BA7517" stroke-width="5"/>
  <circle cx="150" cy="100" r="26" fill="none" stroke="#BA7517" stroke-width="6"/>
  <circle cx="150" cy="100" r="10" fill="#BA7517"/>
  <rect x="173" y="95" width="38" height="10" rx="5" fill="#BA7517"/>
  <rect x="199" y="105" width="10" height="15" rx="4" fill="#EF9F27"/>
  <rect x="179" y="105" width="10" height="11" rx="4" fill="#EF9F27"/>
  <circle cx="150" cy="180" r="9" fill="#EF9F27" opacity="0.65"/>
  <text x="150" y="255" font-family="Arial, sans-serif" font-size="52" font-weight="700" fill="#BA7517" letter-spacing="2" text-anchor="middle">ACESSA</text>
  <text x="150" y="282" font-family="Arial, sans-serif" font-size="15" fill="#888780" letter-spacing="3" text-anchor="middle">GESTÃO DE CHAVES</text>
  <rect x="75" y="292" width="150" height="2.5" rx="1.25" fill="#EF9F27" opacity="0.5"/>
</svg>
